<mxfile host="app.diagrams.net" modified="2024-04-09T09:34:05.946Z" agent="Mozilla/5.0 (Windows NT 10.0; Win64; x64) AppleWebKit/537.36 (KHTML, like Gecko) Chrome/123.0.0.0 Safari/537.36" etag="Xust3YCVvx9VANyxXV2b" version="24.2.1" type="github">
  <diagram name="페이지-1" id="yWdQFHgo5pu_PBagp2mT">
    <mxGraphModel dx="1434" dy="746" grid="1" gridSize="10" guides="1" tooltips="1" connect="1" arrows="1" fold="1" page="1" pageScale="1" pageWidth="827" pageHeight="1169" math="0" shadow="0">
      <root>
        <mxCell id="0" />
        <mxCell id="1" parent="0" />
        <mxCell id="yfW7u3X2JtrVaQoR2vka-1" value="고객" style="whiteSpace=wrap;html=1;align=center;" vertex="1" parent="1">
          <mxGeometry x="320" y="320" width="100" height="40" as="geometry" />
        </mxCell>
        <mxCell id="yfW7u3X2JtrVaQoR2vka-2" value="고객명" style="ellipse;whiteSpace=wrap;html=1;align=center;" vertex="1" parent="1">
          <mxGeometry x="280" y="240" width="100" height="40" as="geometry" />
        </mxCell>
        <mxCell id="yfW7u3X2JtrVaQoR2vka-3" value="" style="endArrow=none;html=1;rounded=0;exitX=0.5;exitY=1;exitDx=0;exitDy=0;entryX=0.25;entryY=0;entryDx=0;entryDy=0;" edge="1" parent="1" source="yfW7u3X2JtrVaQoR2vka-2" target="yfW7u3X2JtrVaQoR2vka-1">
          <mxGeometry relative="1" as="geometry">
            <mxPoint x="330" y="380" as="sourcePoint" />
            <mxPoint x="490" y="380" as="targetPoint" />
          </mxGeometry>
        </mxCell>
        <mxCell id="yfW7u3X2JtrVaQoR2vka-5" value="전화번호" style="ellipse;whiteSpace=wrap;html=1;align=center;fontStyle=4;" vertex="1" parent="1">
          <mxGeometry x="400" y="240" width="100" height="40" as="geometry" />
        </mxCell>
        <mxCell id="yfW7u3X2JtrVaQoR2vka-6" value="" style="endArrow=none;html=1;rounded=0;exitX=0.5;exitY=1;exitDx=0;exitDy=0;entryX=0.75;entryY=0;entryDx=0;entryDy=0;" edge="1" parent="1" source="yfW7u3X2JtrVaQoR2vka-5" target="yfW7u3X2JtrVaQoR2vka-1">
          <mxGeometry relative="1" as="geometry">
            <mxPoint x="340" y="290" as="sourcePoint" />
            <mxPoint x="355" y="330" as="targetPoint" />
          </mxGeometry>
        </mxCell>
        <mxCell id="yfW7u3X2JtrVaQoR2vka-7" value="이메일" style="ellipse;whiteSpace=wrap;html=1;align=center;fontStyle=4;" vertex="1" parent="1">
          <mxGeometry x="480" y="310" width="100" height="40" as="geometry" />
        </mxCell>
        <mxCell id="yfW7u3X2JtrVaQoR2vka-8" value="" style="endArrow=none;html=1;rounded=0;entryX=0;entryY=0.5;entryDx=0;entryDy=0;exitX=1;exitY=0.5;exitDx=0;exitDy=0;" edge="1" parent="1" source="yfW7u3X2JtrVaQoR2vka-1" target="yfW7u3X2JtrVaQoR2vka-7">
          <mxGeometry relative="1" as="geometry">
            <mxPoint x="330" y="380" as="sourcePoint" />
            <mxPoint x="490" y="380" as="targetPoint" />
          </mxGeometry>
        </mxCell>
        <mxCell id="yfW7u3X2JtrVaQoR2vka-9" value="고객코드" style="ellipse;whiteSpace=wrap;html=1;align=center;fontStyle=4;" vertex="1" parent="1">
          <mxGeometry x="490" y="370" width="100" height="40" as="geometry" />
        </mxCell>
        <mxCell id="yfW7u3X2JtrVaQoR2vka-10" value="" style="endArrow=none;html=1;rounded=0;entryX=0;entryY=0.5;entryDx=0;entryDy=0;exitX=0.75;exitY=1;exitDx=0;exitDy=0;" edge="1" parent="1" target="yfW7u3X2JtrVaQoR2vka-9" source="yfW7u3X2JtrVaQoR2vka-1">
          <mxGeometry relative="1" as="geometry">
            <mxPoint x="400" y="410" as="sourcePoint" />
            <mxPoint x="470" y="450" as="targetPoint" />
          </mxGeometry>
        </mxCell>
        <mxCell id="yfW7u3X2JtrVaQoR2vka-11" value="주소" style="ellipse;whiteSpace=wrap;html=1;align=center;" vertex="1" parent="1">
          <mxGeometry x="350" y="410" width="100" height="40" as="geometry" />
        </mxCell>
        <mxCell id="yfW7u3X2JtrVaQoR2vka-12" value="" style="endArrow=none;html=1;rounded=0;exitX=0.5;exitY=1;exitDx=0;exitDy=0;entryX=0.5;entryY=0;entryDx=0;entryDy=0;" edge="1" parent="1" source="yfW7u3X2JtrVaQoR2vka-1" target="yfW7u3X2JtrVaQoR2vka-11">
          <mxGeometry relative="1" as="geometry">
            <mxPoint x="330" y="380" as="sourcePoint" />
            <mxPoint x="490" y="380" as="targetPoint" />
          </mxGeometry>
        </mxCell>
        <mxCell id="yfW7u3X2JtrVaQoR2vka-13" value="상세주소" style="ellipse;whiteSpace=wrap;html=1;align=center;" vertex="1" parent="1">
          <mxGeometry x="270" y="480" width="100" height="40" as="geometry" />
        </mxCell>
        <mxCell id="yfW7u3X2JtrVaQoR2vka-14" value="" style="endArrow=none;html=1;rounded=0;exitX=0.5;exitY=1;exitDx=0;exitDy=0;entryX=0.5;entryY=0;entryDx=0;entryDy=0;" edge="1" parent="1" source="yfW7u3X2JtrVaQoR2vka-11" target="yfW7u3X2JtrVaQoR2vka-13">
          <mxGeometry relative="1" as="geometry">
            <mxPoint x="330" y="380" as="sourcePoint" />
            <mxPoint x="490" y="380" as="targetPoint" />
          </mxGeometry>
        </mxCell>
        <mxCell id="yfW7u3X2JtrVaQoR2vka-15" value="기본주소" style="ellipse;whiteSpace=wrap;html=1;align=center;" vertex="1" parent="1">
          <mxGeometry x="390" y="480" width="100" height="40" as="geometry" />
        </mxCell>
        <mxCell id="yfW7u3X2JtrVaQoR2vka-16" value="" style="endArrow=none;html=1;rounded=0;exitX=0.5;exitY=1;exitDx=0;exitDy=0;entryX=0.5;entryY=0;entryDx=0;entryDy=0;" edge="1" parent="1" target="yfW7u3X2JtrVaQoR2vka-15" source="yfW7u3X2JtrVaQoR2vka-11">
          <mxGeometry relative="1" as="geometry">
            <mxPoint x="520" y="450" as="sourcePoint" />
            <mxPoint x="610" y="380" as="targetPoint" />
          </mxGeometry>
        </mxCell>
        <mxCell id="yfW7u3X2JtrVaQoR2vka-17" value="가입일" style="ellipse;whiteSpace=wrap;html=1;align=center;" vertex="1" parent="1">
          <mxGeometry x="170" y="300" width="100" height="40" as="geometry" />
        </mxCell>
        <mxCell id="yfW7u3X2JtrVaQoR2vka-18" value="" style="endArrow=none;html=1;rounded=0;exitX=0;exitY=0.5;exitDx=0;exitDy=0;entryX=1;entryY=0.5;entryDx=0;entryDy=0;" edge="1" parent="1" source="yfW7u3X2JtrVaQoR2vka-1" target="yfW7u3X2JtrVaQoR2vka-17">
          <mxGeometry relative="1" as="geometry">
            <mxPoint x="330" y="380" as="sourcePoint" />
            <mxPoint x="490" y="380" as="targetPoint" />
          </mxGeometry>
        </mxCell>
        <mxCell id="yfW7u3X2JtrVaQoR2vka-20" value="" style="endArrow=none;html=1;rounded=0;exitX=0;exitY=1;exitDx=0;exitDy=0;entryX=1;entryY=0;entryDx=0;entryDy=0;" edge="1" parent="1" target="yfW7u3X2JtrVaQoR2vka-40" source="yfW7u3X2JtrVaQoR2vka-1">
          <mxGeometry relative="1" as="geometry">
            <mxPoint x="310" y="420" as="sourcePoint" />
            <mxPoint x="260" y="400" as="targetPoint" />
          </mxGeometry>
        </mxCell>
        <mxCell id="yfW7u3X2JtrVaQoR2vka-21" value="지역" style="whiteSpace=wrap;html=1;align=center;" vertex="1" parent="1">
          <mxGeometry x="880" y="320" width="100" height="40" as="geometry" />
        </mxCell>
        <mxCell id="yfW7u3X2JtrVaQoR2vka-23" value="" style="endArrow=none;html=1;rounded=0;entryX=0;entryY=0.5;entryDx=0;entryDy=0;exitX=0.75;exitY=0;exitDx=0;exitDy=0;" edge="1" parent="1" target="yfW7u3X2JtrVaQoR2vka-24" source="yfW7u3X2JtrVaQoR2vka-21">
          <mxGeometry relative="1" as="geometry">
            <mxPoint x="980" y="300" as="sourcePoint" />
            <mxPoint x="1040" y="290" as="targetPoint" />
          </mxGeometry>
        </mxCell>
        <mxCell id="yfW7u3X2JtrVaQoR2vka-24" value="지역명" style="ellipse;whiteSpace=wrap;html=1;align=center;" vertex="1" parent="1">
          <mxGeometry x="1000" y="270" width="100" height="40" as="geometry" />
        </mxCell>
        <mxCell id="yfW7u3X2JtrVaQoR2vka-25" value="지역코드" style="ellipse;whiteSpace=wrap;html=1;align=center;fontStyle=4;" vertex="1" parent="1">
          <mxGeometry x="1010" y="370" width="100" height="40" as="geometry" />
        </mxCell>
        <mxCell id="yfW7u3X2JtrVaQoR2vka-26" value="" style="endArrow=none;html=1;rounded=0;entryX=0;entryY=0.5;entryDx=0;entryDy=0;exitX=1;exitY=1;exitDx=0;exitDy=0;" edge="1" parent="1" source="yfW7u3X2JtrVaQoR2vka-21" target="yfW7u3X2JtrVaQoR2vka-25">
          <mxGeometry relative="1" as="geometry">
            <mxPoint x="650" y="410" as="sourcePoint" />
            <mxPoint x="810" y="410" as="targetPoint" />
          </mxGeometry>
        </mxCell>
        <mxCell id="yfW7u3X2JtrVaQoR2vka-27" value="제품" style="whiteSpace=wrap;html=1;align=center;" vertex="1" parent="1">
          <mxGeometry x="680" y="610" width="100" height="40" as="geometry" />
        </mxCell>
        <mxCell id="yfW7u3X2JtrVaQoR2vka-28" value="제품코드" style="ellipse;whiteSpace=wrap;html=1;align=center;fontStyle=4;" vertex="1" parent="1">
          <mxGeometry x="680" y="530" width="100" height="40" as="geometry" />
        </mxCell>
        <mxCell id="yfW7u3X2JtrVaQoR2vka-29" value="" style="endArrow=none;html=1;rounded=0;entryX=0.5;entryY=1;entryDx=0;entryDy=0;exitX=0.5;exitY=0;exitDx=0;exitDy=0;" edge="1" parent="1" source="yfW7u3X2JtrVaQoR2vka-27" target="yfW7u3X2JtrVaQoR2vka-28">
          <mxGeometry relative="1" as="geometry">
            <mxPoint x="650" y="410" as="sourcePoint" />
            <mxPoint x="810" y="410" as="targetPoint" />
          </mxGeometry>
        </mxCell>
        <mxCell id="yfW7u3X2JtrVaQoR2vka-30" value="제품명" style="ellipse;whiteSpace=wrap;html=1;align=center;" vertex="1" parent="1">
          <mxGeometry x="827" y="580" width="100" height="40" as="geometry" />
        </mxCell>
        <mxCell id="yfW7u3X2JtrVaQoR2vka-31" value="" style="endArrow=none;html=1;rounded=0;entryX=0.5;entryY=1;entryDx=0;entryDy=0;exitX=0.5;exitY=0;exitDx=0;exitDy=0;" edge="1" parent="1" source="yfW7u3X2JtrVaQoR2vka-37" target="yfW7u3X2JtrVaQoR2vka-27">
          <mxGeometry relative="1" as="geometry">
            <mxPoint x="650" y="410" as="sourcePoint" />
            <mxPoint x="810" y="410" as="targetPoint" />
          </mxGeometry>
        </mxCell>
        <mxCell id="yfW7u3X2JtrVaQoR2vka-32" value="" style="endArrow=none;html=1;rounded=0;entryX=0;entryY=0.5;entryDx=0;entryDy=0;exitX=1;exitY=0.25;exitDx=0;exitDy=0;" edge="1" parent="1" source="yfW7u3X2JtrVaQoR2vka-27" target="yfW7u3X2JtrVaQoR2vka-30">
          <mxGeometry relative="1" as="geometry">
            <mxPoint x="740" y="620" as="sourcePoint" />
            <mxPoint x="740" y="580" as="targetPoint" />
          </mxGeometry>
        </mxCell>
        <mxCell id="yfW7u3X2JtrVaQoR2vka-33" value="제품구분" style="ellipse;whiteSpace=wrap;html=1;align=center;" vertex="1" parent="1">
          <mxGeometry x="847" y="660" width="100" height="40" as="geometry" />
        </mxCell>
        <mxCell id="yfW7u3X2JtrVaQoR2vka-34" value="" style="endArrow=none;html=1;rounded=0;entryX=0;entryY=0.5;entryDx=0;entryDy=0;exitX=1;exitY=1;exitDx=0;exitDy=0;" edge="1" parent="1" target="yfW7u3X2JtrVaQoR2vka-33" source="yfW7u3X2JtrVaQoR2vka-27">
          <mxGeometry relative="1" as="geometry">
            <mxPoint x="800" y="700" as="sourcePoint" />
            <mxPoint x="760" y="660" as="targetPoint" />
          </mxGeometry>
        </mxCell>
        <mxCell id="yfW7u3X2JtrVaQoR2vka-37" value="제품색상" style="ellipse;shape=doubleEllipse;margin=3;whiteSpace=wrap;html=1;align=center;" vertex="1" parent="1">
          <mxGeometry x="680" y="690" width="100" height="40" as="geometry" />
        </mxCell>
        <mxCell id="yfW7u3X2JtrVaQoR2vka-38" value="가격" style="ellipse;whiteSpace=wrap;html=1;align=center;" vertex="1" parent="1">
          <mxGeometry x="547" y="640" width="100" height="40" as="geometry" />
        </mxCell>
        <mxCell id="yfW7u3X2JtrVaQoR2vka-39" value="" style="endArrow=none;html=1;rounded=0;entryX=1;entryY=0.5;entryDx=0;entryDy=0;exitX=0;exitY=0.5;exitDx=0;exitDy=0;" edge="1" parent="1" target="yfW7u3X2JtrVaQoR2vka-38" source="yfW7u3X2JtrVaQoR2vka-27">
          <mxGeometry relative="1" as="geometry">
            <mxPoint x="500" y="680" as="sourcePoint" />
            <mxPoint x="460" y="640" as="targetPoint" />
          </mxGeometry>
        </mxCell>
        <mxCell id="yfW7u3X2JtrVaQoR2vka-40" value="지역" style="shape=associativeEntity;whiteSpace=wrap;html=1;align=center;" vertex="1" parent="1">
          <mxGeometry x="100" y="410" width="140" height="60" as="geometry" />
        </mxCell>
        <mxCell id="yfW7u3X2JtrVaQoR2vka-41" value="제품" style="shape=associativeEntity;whiteSpace=wrap;html=1;align=center;" vertex="1" parent="1">
          <mxGeometry x="507" y="430" width="140" height="60" as="geometry" />
        </mxCell>
        <mxCell id="yfW7u3X2JtrVaQoR2vka-42" value="" style="endArrow=none;html=1;rounded=0;exitX=0.75;exitY=1;exitDx=0;exitDy=0;entryX=0;entryY=0;entryDx=0;entryDy=0;" edge="1" parent="1" source="yfW7u3X2JtrVaQoR2vka-1" target="yfW7u3X2JtrVaQoR2vka-41">
          <mxGeometry relative="1" as="geometry">
            <mxPoint x="650" y="420" as="sourcePoint" />
            <mxPoint x="810" y="420" as="targetPoint" />
          </mxGeometry>
        </mxCell>
        <mxCell id="yfW7u3X2JtrVaQoR2vka-43" value="고객" style="shape=associativeEntity;whiteSpace=wrap;html=1;align=center;" vertex="1" parent="1">
          <mxGeometry x="507" y="710" width="140" height="60" as="geometry" />
        </mxCell>
        <mxCell id="yfW7u3X2JtrVaQoR2vka-44" value="" style="endArrow=none;html=1;rounded=0;entryX=0.25;entryY=1;entryDx=0;entryDy=0;exitX=1;exitY=0;exitDx=0;exitDy=0;" edge="1" parent="1" source="yfW7u3X2JtrVaQoR2vka-43" target="yfW7u3X2JtrVaQoR2vka-27">
          <mxGeometry relative="1" as="geometry">
            <mxPoint x="650" y="420" as="sourcePoint" />
            <mxPoint x="810" y="420" as="targetPoint" />
          </mxGeometry>
        </mxCell>
      </root>
    </mxGraphModel>
  </diagram>
</mxfile>
